<?xml version="1.0" encoding="UTF-8"?><svg xmlns="http://www.w3.org/2000/svg" xmlns:xlink="http://www.w3.org/1999/xlink" viewBox="0 0 668.29529 672.00092"><defs><style>.g{fill:url(#f);}.h{fill:url(#d);}.i{fill:url(#e);}.j{fill:#050f9c;}</style><linearGradient id="d" x1="421.10748" y1="77.13361" x2="496.14974" y2="632.85192" gradientTransform="matrix(1, 0, 0, 1, 0, 0)" gradientUnits="userSpaceOnUse"><stop offset="0" stop-color="#eb0383"/><stop offset=".00562" stop-color="#eb0383"/><stop offset=".24575" stop-color="#ef3e5e"/><stop offset=".50289" stop-color="#f4783c"/><stop offset=".72361" stop-color="#f8a123"/><stop offset=".89642" stop-color="#fabb13"/><stop offset="1" stop-color="#fbc50e"/></linearGradient><linearGradient id="e" x1="175.49499" y1="110.30026" x2="250.53724" y2="666.01857" xlink:href="#d"/><linearGradient id="f" x1="239.10613" y1="101.71044" x2="314.14839" y2="657.42875" xlink:href="#d"/></defs><g id="a"/><g id="b"><g id="c"><g><g><path class="j" d="M115.15137,79.61456c1.76221,.61707,3.53223,1.22382,5.28809,1.84912,39.01562,13.96332,76.23853,29.60754,110.89478,46.59479,66.15674-28.65765,129.52905-50.2561,165.64893-61.82037H131.96436c-5.75195,4.27844-11.35254,8.74713-16.81299,13.37646Z"/><path class="j" d="M333.04541,362.13556c1.83228,27.36096,22.28662,56.98932,61.00049,88.25201,39.28296,31.72302,96.78687,64.47504,170.91394,97.34698,6.84497,3.03522,13.7467,6.01959,20.67517,8.97113,46.11621-52.89087,75.94531-120.35052,81.6554-194.57013H333.04541Z"/><path class="j" d="M31.39258,247.70807c27.98096-27.12299,68.82007-54.83795,121.3811-82.37598,20.4856-10.73254,41.67163-20.86902,62.77417-30.32062-31.67578-13.96881-65.30371-26.7804-100.33008-38.1972-4.72339-1.53186-9.4751-3.0293-14.2417-4.50092C47.91821,142.69458,11.30566,210.21991,0,286.01532c7.76929-12.76495,18.23267-25.54974,31.39258-38.30725Z"/><path class="j" d="M610.67432,161.49023c-71.63647,27.12292-139.74634,58.32556-190.59814,91.16028,12.59644,11.26428,24.85803,23.02271,36.71338,35.24139l13.0166-11.45459,31.81372,65.42261-60.87476-39.84839,12.35742-10.87451c-12.47278-12.13013-25.35217-23.76257-38.56506-34.85712-46.64783,31.01349-77.56262,63.39294-81.25159,95.10168-.1062,.91156-.18799,1.82623-.25073,2.74323h334.77002c.31909-6.00189,.49011-12.04297,.49011-18.12439,0-65.04138-18.50037-125.75287-50.49695-177.19696-2.29602,.86237-5.30103,1.99652-7.12402,2.68677Z"/><path class="j" d="M251.19971,138.09167c21.24512,11.0401,38.88281,20.94519,55.1709,30.97699,21.39404,13.04932,40.05957,25.47412,57.05762,37.98145,14.80444,10.67084,29.29663,22.04572,43.40503,34.04492,53.40698-35.38574,123.94409-67.24402,193.40845-93.64905,2.03027-.77179,5.36792-1.99457,8.10645-3.00452-17.78918-25.58759-39.03174-48.59113-63.07336-68.31738h-122.65125c-41.27063,12.55542-105.44385,34.12518-171.42383,61.96759Z"/><path class="j" d="M566.6189,567.0976c-130.44165-56.92627-246.45703-128.71667-250.33032-204.96204H3.36963c32.16138,105.48157,288.48022,205.86395,486.69312,268.68066,.12524,.03967,1.17505,.38922,2.20117,.73077,30.06934-16.30981,57.3551-37.08868,81.0022-61.4231-1.89209-.82971-4.07739-1.82007-6.64722-3.02631Z"/><path class="j" d="M203.33496,646.34259c39.71143,16.52081,83.26611,25.65833,128.95996,25.65833s89.24841-9.13751,128.95996-25.65833H203.33496Z"/><path class="j" d="M316.68091,349.35657c4.26318-36.64301,36.88525-71.87531,84.20483-104.25684-13.7959-11.0036-27.92285-21.41614-42.31348-31.1756-17.13965-11.87354-35.93457-23.62305-57.47168-35.92871-17.54102-10.12549-36.62939-20.07227-60.07764-31.30615-1.56104-.74506-3.13696-1.48236-4.70898-2.22162C113.84229,197.74615-9.39307,271.8385,.5896,349.35608c.20483,1.59052,.46875,3.18005,.77905,4.76874H316.29443c.08472-1.58789,.20117-3.17694,.38647-4.76825Z"/><path class="j" d="M520.32495,57.50079C466.66553,21.20142,401.95654,0,332.29492,0S197.92432,21.20142,144.26465,57.50079h376.0603Z"/><path class="j" d="M305.64551,584.1731c-89.4729-35.09802-161.30493-70.13702-213.49902-104.14301-42.77295-27.86841-72.62354-54.99927-90.11719-82.01013,19.78613,106.01892,89.34351,194.51569,183.51733,240.31189H457.51904c-48.93115-15.96564-100.86841-34.15094-151.87354-54.15875Z"/></g><g><path class="h" d="M545.26929,76.12408h-122.64575c-41.27063,12.55542-105.44385,34.12518-171.42383,61.96759,21.24512,11.0401,38.88281,20.94519,55.1709,30.97699,21.39404,13.04932,40.05957,25.47412,57.05762,37.98145,14.80444,10.67084,29.29663,22.04572,43.40503,34.04492,53.40698-35.38574,123.94409-67.24402,193.40845-93.64905,2.02734-.77069,5.3584-1.99109,8.09473-3.00018-17.78809-25.58838-39.02502-48.59564-63.06714-68.32172Z"/><path class="i" d="M316.68091,349.35657c4.26318-36.64301,36.88525-71.87531,84.20483-104.25684-13.7959-11.0036-27.92285-21.41614-42.31348-31.1756-17.13965-11.87354-35.93457-23.62305-57.47168-35.92871-17.54102-10.12549-36.62939-20.07227-60.07764-31.30615-1.56104-.74506-3.13696-1.48236-4.70898-2.22162C113.84229,197.74615-9.39307,271.8385,.5896,349.35608c.20483,1.59052,.46875,3.18005,.77905,4.76874H316.29443c.08472-1.58789,.20117-3.17694,.38647-4.76825Z"/><path class="g" d="M316.28857,362.13556H3.36963c32.16138,105.48157,288.48022,205.86395,486.69312,268.68066,.12427,.03937,1.15918,.38391,2.17773,.72302,30.07422-16.31116,57.37451-37.078,81.02173-61.41711-1.89136-.82935-4.07532-1.81915-6.64331-3.02454-130.44165-56.92627-246.45703-128.71667-250.33032-204.96204Z"/></g></g></g></g></svg>